<?xml version="1.0" encoding="utf-8"?>
<!-- Generator: Adobe Illustrator 19.0.0, SVG Export Plug-In . SVG Version: 6.00 Build 0)  -->
<!DOCTYPE svg PUBLIC "-//W3C//DTD SVG 1.1//EN" "http://www.w3.org/Graphics/SVG/1.1/DTD/svg11.dtd">
<svg version="1.1" id="Layer_1" xmlns="http://www.w3.org/2000/svg" xmlns:xlink="http://www.w3.org/1999/xlink" x="0px" y="0px"
	 viewBox="0 0 612 792" enable-background="new 0 0 612 792" xml:space="preserve">
<g>
	<path fill-rule="evenodd" clip-rule="evenodd" fill="#3D85BD" d="M243,354.2c-5.9,24.7,12,76.8,25.1,91.6c4.3,4.9-2-7.6,2.6-6.7
		c-27.2-36.6-10.5-59.3-16.4-88.2C251.1,334.3,244.9,346.5,243,354.2z"/>
	<path fill-rule="evenodd" clip-rule="evenodd" fill="#FF9900" d="M286.5,509.1c-0.2-3-2.4-5.4-2.6-8.4c-11.4,12.9-26,1.2-31.7,5.3
		c-5.2,4.2,2.2,10.4,12.3,7.5C272,510.8,279.1,511.8,286.5,509.1z"/>
	<path fill-rule="evenodd" clip-rule="evenodd" fill="#FF9900" d="M295.3,467.2c2,1,6.8,5.4,8.8,6.4c-5.5,9.8-11.2,20.6-10.1,29.7
		c-4,4-7.2,4.2-11.1,4.4c-4.5,0.3-9.4,0.4-9.8-1C285.2,506.3,300.1,479,295.3,467.2z"/>
	<path fill-rule="evenodd" clip-rule="evenodd" fill="#FF9900" d="M329.9,460.8c-2.5,1-9.5,5.4-12,6.4c0.5,9.8,2.3,31.4-6.2,30.6
		c1.9,4,6.5,3.2,10.3,3.5c4.3,0.3,7.8-0.7,8.8-2.1C318.8,498.8,319.2,472.6,329.9,460.8z"/>
	<path fill-rule="evenodd" clip-rule="evenodd" fill="#B31717" d="M236.1,395.9c2.7,33.7,34.1,67.8,53.1,65.4
		c-8.9-19.1-3.8-54.9-2.9-74.5c0.4-9.6-4-22.2-11.1-9.9c-6.1,10.6-3.9,35.1-4.8,50.7c-0.2-22-0.5-48.3-5-60.5
		c-5.5-15-11.6-4.1-12.2,8.3c-0.6,12.4,1,30.3,3.8,45.4c-4.7-10.1-7-29.9-11.5-37.9C237.3,368.2,235.5,388.1,236.1,395.9z"/>
	<path fill-rule="evenodd" clip-rule="evenodd" fill="#F0C56E" d="M331.1,450.8c5.3-14,10.7-28,16-42c26.4,14.1,36,22.3,18.5,34.2
		c-3,2-9,5.6-0.1,3.8c1.5-0.3,3.1-0.7,4.7-0.9c9.6-1.5,6.2,4.6-0.3,7.3c-5.1,2.1-12.4,2.7-17.5-1.1c0.3,1.1,2.1,2.5,4.2,3.4
		c6.6,2.8-1.7,2.9-3.9,2.7c-1.7-0.1-3.4-0.7-5.1-1.9c0.4,2.5,7,4.1-4,4.3C330.9,461,331,454.9,331.1,450.8z"/>
	<path fill-rule="evenodd" clip-rule="evenodd" fill="#C48B18" d="M323.6,446.9c7.3,0,12.7,6,11.9,14c-0.8,8-8.8,14.4-16.1,14.4
		c-7.3,0-12.8-10.2-12-18.2S316.3,446.9,323.6,446.9z"/>
	<path fill-rule="evenodd" clip-rule="evenodd" fill="#663A0E" d="M356.7,435.4c-9.2,30.8-51.8,44.2-70,25.2c-0.8-0.9-2.6,0-3.3-1.1
		c-3.5-5-4.4-10.6-3.5-16.4c1.3-8.4-4-19.7,2-27.6c6-7.9,23.5-8.4,27.9-13.9c9-11.2-27.2-20.5-27.1-47.6
		c0.1-17.5,21.3-42.9,38.9-42.9c38.7,1.3,41.8,39,41.8,50.3c0,2.5-1.5,7.8-3,10.3c-6.7,11.4-14.9,13.1-21.8,22.3
		c-8.4,11.2,6.8,8.8,13.7,17.5C356.6,417,360.2,423.7,356.7,435.4z"/>
	<path fill-rule="evenodd" clip-rule="evenodd" fill="#F0B030" d="M304.3,448.4c7.3,0,13.3,6,13.3,14s-9.9,14.6-17.2,14.6
		c-7.3,0-11.3-10.3-11.3-18.3C289.1,450.7,297,448.4,304.3,448.4z"/>
	<path fill-rule="evenodd" clip-rule="evenodd" fill="#F0C56E" d="M299.2,444.9c-7.1-3.1-9-12.9,3.8-21c10.5-6.6,9.5-12.6,6.2-15.5
		c-3.5-3-9.8-2.6-14.9-0.4c-25.3,7.9-42.7,17-44.2,27.3c-1,6.9,6.5,15.3,18.7,20.9c3.6,1.7,11.6,2.9,1.2,3.9
		c-29.8,2.7,3.8,15.8,16.1,1.3c-0.1,1-1.2,2.7-2.9,4.2c-2.2,1.9-4.5,2.4-4.6,3c-0.2,2.2,9.4,2.1,14-4.3c0.2,2.7-5.9,6.6,2.7,3.3
		C319.5,458.3,304.6,447.3,299.2,444.9z"/>
	<path fill-rule="evenodd" clip-rule="evenodd" fill="#FF9900" d="M286.1,506.3c7.9-1.5,12.3-7.7,16.9-6.8c2.9,0.5,4.2,4.5,1.9,6
		c-1.6,1.2-5,1.6-9.3,2.5c-6.3,1.2-8.9,2.4-14.2,5.8c-4.1,2.7-7.6,5.4-11.1,7.9c-4.2,2.9-12.2,5.1-13.2-2.3
		C255.7,509.8,277.4,511.3,286.1,506.3z"/>
	<path fill-rule="evenodd" clip-rule="evenodd" fill="#FFFFFF" d="M345.9,331c4.6,0.7,7.7,5.2,7.1,10.2c-0.6,4.9-4.9,8.3-9.4,7.7
		c-4.6-0.7-7.7-5.2-7.1-10.2C337.1,333.7,341.3,330.3,345.9,331z"/>
	<circle fill-rule="evenodd" clip-rule="evenodd" fill="#FFFFFF" cx="322.8" cy="339.1" r="10.5"/>
	<path fill-rule="evenodd" clip-rule="evenodd" fill="#D40000" d="M311.2,313.8c5.9-2.1,24.3,7.2,25,18.2
		c1.2-8.2,9.7-10.4,16.2-11.4c4.4-0.7,9.2,1,7.6-4.6c-0.9-3.3-4.4-4.4-8.4-4c-3.6,0.4-8.9,6.6-10,3.8c-3.1-13.8,22.4-5.3,21.6-15.6
		c-0.5-6.7-6.4-10-12.7-9.1c-3.8,0.6-7.9,2.6-11.7,6.2c-2.2,2-7.1,9-7.4-0.1c-0.1-5,6.1-8.3,11.2-11.7c17.5-11.9-6.1-27.5-21.1-9.8
		c-3.1,3.6-5.2,8.2-5.2,13.2c0,3.5,2.6,10.2-3.1,8c-3-1.2-2.9-6-3.6-9.7c-1.4-7.6-6.8-4.7-9.1,0.5
		C296.3,297.5,302.1,311,311.2,313.8z"/>
	<circle fill-rule="evenodd" clip-rule="evenodd" cx="318.7" cy="340.6" r="5"/>
	<circle fill-rule="evenodd" clip-rule="evenodd" cx="343.2" cy="341.2" r="4.3"/>
	<circle fill-rule="evenodd" clip-rule="evenodd" fill="#FFFFFF" cx="344.9" cy="339" r="2.2"/>
	<circle fill-rule="evenodd" clip-rule="evenodd" fill="#FFFFFF" cx="320.9" cy="337.9" r="2.2"/>
	<path fill-rule="evenodd" clip-rule="evenodd" fill="#D40000" d="M318,364.5c3.2,1.8,11.6,8.8,14.7,10.6c4,1.1,11.8,14.3,13.4,26.3
		c1.5,10.9-5.2,19.9-14,15.5c5.1-7.2,3.5-20.6,2-23.9c0.9,5.3,0.8,13.1-1,18.5c-2.3,6.9-9.1,9.1-15.2,4.8
		c-6.3-4.4-3.7-11.9-1.5-17.6C319.5,391,322.3,384,318,364.5z"/>
	<path fill-rule="evenodd" clip-rule="evenodd" fill="#B56F07" d="M305.5,350.1c2.7,0.9,10.9,4.8,15,5.5c12.7,2.1,29.7,5.9,39.4,8.3
		c-5.8,0.5-16.6,33.2-46.6,4.7c-2.7-2.6-5.7-5.6-7.4-9.4C304.9,356.6,303.8,351.2,305.5,350.1z"/>
	<path fill-rule="evenodd" clip-rule="evenodd" fill="#FF9900" d="M323.4,497c-2.5,1-8.1-0.2-10.6,0.8c-3.4,0.6-7.6-0.7-10-0.5
		c-4.9,0.4-4.6,7.3,2,7c10.4-0.4,16.5-1.1,20.8-0.8c6.8,0.6,9.6,2.9,24,5.6c7,1.3,12.1-0.4,5.6-6.4
		C348.4,496.4,334.5,502.8,323.4,497z"/>
	<path fill-rule="evenodd" clip-rule="evenodd" fill="#C96602" d="M270.4,425.6c-14.3,8.8-20.5,4.6-1.2-7.9
		c-10.4,5.1-17.2,10.6-18.8,16.5c-0.1,0.4-0.2,0.8-0.3,1.2c-1,6.9,6.5,15.3,18.7,20.9c3.6,1.7,11.6,2.9,1.2,3.9
		c-29.3,2.6,2.6,15.3,15.4,2.1c0.2-0.3,0.5-0.5,0.7-0.8c0,0.3-0.1,0.7-0.4,1.2c-0.5,0.9-1.4,2-2.6,3c-2.2,1.9-4.5,2.4-4.6,3
		c-0.1,1.8,6.1,2,10.9-1.2c0.4-0.3,0.8-0.6,1.1-0.9c0.7-0.6,1.4-1.3,2-2.2c0.1,0.9-0.5,1.9-1.1,2.7c-1,1.6-1.9,2.6,2.3,1.1
		c0.3-0.1,0.6-0.2,1-0.4c0.2-0.1,0.3-0.1,0.5-0.2c6.5-2.5,10.1-5.1,11.9-7.7c1.5-2.2,1.7-4.3,1-6.3c-0.7-2-2.2-3.8-3.9-5.3
		c-1.8-1.6-3.9-2.8-5.3-3.4c-6.2-2.7-8.4-10.4-0.5-17.7c-5.6,4.2-10,12.1-14,15.8c-5.9,5.4-5.9-0.7-4.7-5.4c0.7-2.9,2.1-6.1,4.1-9.5
		c0.5-0.8,1-1.7,1.5-2.5c-0.5,0.6-1,1.2-1.5,1.8c-1.6,1.9-3.1,3.6-4.6,5.1c-5.5,5.6-9.8,8-11.7,6.5c-2.2-1.7-1.7-9.1,9-17.8
		c-2.2,1.7-4.3,3.1-6.2,4.3C270.5,425.5,270.5,425.5,270.4,425.6z"/>
	<path fill-rule="evenodd" clip-rule="evenodd" fill="#C96602" d="M365.4,446.8c-8.8,1.8-2.8-1.7,0.1-3.8c0.7-0.5,1.3-0.9,2-1.4
		c-7.4,3.8-9.1,4.7-10.3,4.2c-1.4-0.6,1.5-5.8,3.3-9.8c2-4.6,0.8-4-1.6-0.5c-1.7,2.5-3.5,5.8-5.1,7.1c-3.6,7.1-9.1,13.1-15.6,17.7
		c1.5,0.3,3.2,0.4,5.4,0.3c11-0.3,4.4-1.8,4-4.3c1.7,1.2,3.4,1.7,5.1,1.9c2.2,0.2,10.5,0.1,3.9-2.7c-2.1-0.9-3.9-2.3-4.2-3.4
		c5.1,3.8,12.4,3.2,17.5,1.1c6.4-2.6,9.8-8.8,0.3-7.3C368.5,446.1,366.9,446.5,365.4,446.8z"/>
	<path fill-rule="evenodd" clip-rule="evenodd" fill="#F0C56E" d="M313,470.4c1.5-0.2,2.9-0.4,4.4-0.8c2.6-0.6,5.2-1.3,7.7-2.3
		c3.5-1.3,6.9-3,10.2-5.1c1-0.6,2-1.3,2.9-2c2.1-1.5,4-3.1,5.9-4.9c2.9-2.7,5.7-6.1,8-9.9c4.3-6.9,7-15.2,5.6-22.7
		c2.2,11.1-7.9,30.4-14.1,29.7c-3.2-0.4-4.4-8.8-3.9-13c-18.9,31-21.7,7.1-17.2-3.7c-3.3,5.6-11,13.3-17.9,12.6c0,0,0,0.1,0,0.1
		c0.4,0.3,0.8,0.7,1.1,1.1c1.1,1.2,2.1,2.6,2.6,4.1c0.7,2,0.5,4.1-1,6.3c-1.8,2.6-5.4,5.2-11.9,7.7c-0.2,0.1-0.3,0.1-0.5,0.2
		c-0.4,0.1-0.7,0.3-1,0.4c-0.2,0.1-0.4,0.1-0.5,0.2c0.6,0.4,1.2,0.7,1.8,1C300.4,471.7,307.5,471.5,313,470.4z"/>
	<path fill-rule="evenodd" clip-rule="evenodd" fill="#F0C56E" d="M303.3,447.3c-2.7-4.7,4.4-17.3,2.6-17.7
		c-1.4-0.3-8.8,11.5-12,8.9c0.6,2.9,2.6,5.2,5.4,6.4C300,445.3,302.2,446.7,303.3,447.3z"/>
	<path fill-rule="evenodd" clip-rule="evenodd" d="M350.5,332.7c-5.6-5.9-10.6-4-15.3,1.2l-1.4-2.4c-0.5-0.8-1-1.5-1.6-2.2
		c-1.9-2.1-4.4-3.6-7.1-4.1c-3.7-0.7-7.4,0.4-10.1,2.9l-5.2-4.8c6.3-5.7,20.5-5.7,26.4,4.3c6.5-6.5,16.9-4.8,20.1,2.7L350.5,332.7z"
		/>
	<path fill-rule="evenodd" clip-rule="evenodd" fill="#663A0E" d="M351.4,410.7c14,15.3,9.5,44.1,2.5,27.5
		C353.2,436.8,351.4,410.7,351.4,410.7z"/>
	<path fill-rule="evenodd" clip-rule="evenodd" fill="#FF9900" d="M306.7,349.7c7.7-0.6,13.5,6.5,19.8,3.4c13-7.5,22-13.5,34.1-7
		c11.3,5.6,14.7,17.8,11.6,26.2c-3.4,9.1-7.1,3.2-12.6,0.3c-12.7-6.7-26.7-1-39.7-5.7c-8.6-3.1-15.9-10.1-15-15.8
		C305.1,350.3,305.6,349.8,306.7,349.7z"/>
	<path fill-rule="evenodd" clip-rule="evenodd" fill="#FFC46B" d="M350.4,347.7c8.3,1.5,14.5,6.1,18.9,13.9c0.9,1.6,1.6,2.5,2,2.4
		c0.3-0.1,0.8-0.1-0.1-2.9c-2.8-9.1-11-15.7-20.7-15.6c-3.6,0-4.2,0.7-4.2,1.1C346.2,346.8,346.8,347,350.4,347.7z"/>
</g>
</svg>
